# xmcd
#
# Track frame offsets:
#	150
#	18301
#	37845
#	59493
#	82800
#	98598
#	115973
#	132690
#	147019
#
# Disc length: 2146 seconds
#
# Revision: 0
# Processed by: cddbd v1.5.2PL0 Copyright (c) Steve Scherf et al.
# Submitted via: dBpowerAMP V4.0
#
DISCID=6e086009
DTITLE=DP Blues Band - Baixo Coimbra Club
DYEAR=2005
DGENRE=Blues
TTITLE0=A viola e o computador
TTITLE1=House of the wasted
TTITLE2=Johnny's riffs
TTITLE3=Jazzeando o blues
TTITLE4=Pelas esquinas de Coimbra
TTITLE5=Baixo Coimbra
TTITLE6=Change de world
TTITLE7=Prá você
TTITLE8=I love the blues
EXTD=
EXTT0=
EXTT1=
EXTT2=
EXTT3=
EXTT4=
EXTT5=
EXTT6=
EXTT7=
EXTT8=
PLAYORDER=
